<svg width="16" height="23" viewBox="0 0 16 23" fill="none" xmlns="http://www.w3.org/2000/svg">
<path d="M2.43956 0.000930331C2.51487 0.00086072 2.59017 0.000573479 2.66547 0.000298437C2.84788 -0.000234052 3.03027 8.91228e-06 3.21268 0.00053415C3.36109 0.000944798 3.50949 0.00105595 3.6579 0.000958402C3.67912 0.000944488 3.70033 0.000930574 3.72219 0.000916239C3.7653 0.000886325 3.80841 0.000855569 3.85152 0.000823979C4.2318 0.000574924 4.61208 0.00105825 4.99236 0.00192642C5.36035 0.00276651 5.72834 0.00297325 6.09633 0.00252408C6.49817 0.00203425 6.9 0.00191938 7.30184 0.00242821C7.34479 0.00248195 7.38774 0.00253542 7.43069 0.00258861C7.45182 0.00261519 7.47294 0.00264177 7.49471 0.00266916C7.64272 0.0028317 7.79072 0.0027369 7.93873 0.00254359C8.11942 0.00231693 8.30011 0.00251959 8.4808 0.00324811C8.57278 0.00360933 8.66475 0.00373123 8.75673 0.00346547C9.22596 0.00226662 9.65807 0.0242534 10.095 0.228786C10.1138 0.237398 10.1325 0.24601 10.1518 0.254884C10.5772 0.457938 10.8894 0.776689 11.2121 1.13107C11.2644 1.18846 11.2644 1.18846 11.3338 1.24514C11.3912 1.29575 11.4334 1.34443 11.4811 1.40517C11.5915 1.54271 11.7093 1.67094 11.8287 1.79921C11.8639 1.83721 11.8639 1.83721 11.8999 1.87598C11.9505 1.93062 12.0012 1.98523 12.0519 2.03979C12.1323 2.1262 12.2125 2.21273 12.2927 2.29927C12.4629 2.48287 12.6332 2.66635 12.8035 2.84981C12.9876 3.04814 13.1717 3.2465 13.3557 3.44499C13.4353 3.5309 13.515 3.61673 13.5947 3.7025C13.656 3.7685 13.7173 3.8346 13.7785 3.90067C13.8004 3.9242 13.8223 3.94774 13.8449 3.97198C13.9522 4.08789 14.0531 4.20503 14.1485 4.33245C14.1929 4.38159 14.2378 4.43016 14.2833 4.47816C14.3088 4.50597 14.3342 4.53382 14.3597 4.56172C14.5346 4.75351 14.5346 4.75351 14.7198 4.93352C14.824 5.0296 14.9136 5.13667 15.0037 5.24794C15.0435 5.29668 15.0843 5.34458 15.1261 5.39138C15.5035 5.81845 15.7055 6.3561 15.8204 6.92616C15.8276 6.95847 15.8276 6.95847 15.8349 6.99143C15.8506 7.09293 15.851 7.19251 15.8507 7.29507C15.8507 7.31742 15.8507 7.33978 15.8508 7.36282C15.8508 7.438 15.8507 7.51318 15.8506 7.58837C15.8506 7.64271 15.8506 7.69705 15.8507 7.75139C15.8507 7.90091 15.8506 8.05044 15.8505 8.19996C15.8504 8.36113 15.8504 8.5223 15.8504 8.68347C15.8504 8.96277 15.8504 9.24207 15.8502 9.52138C15.85 9.92521 15.8499 10.329 15.8499 10.7329C15.8498 11.388 15.8496 12.0432 15.8494 12.6983C15.8491 13.3348 15.8489 13.9713 15.8488 14.6078C15.8488 14.6372 15.8488 14.6372 15.8488 14.6672C15.8488 14.8643 15.8487 15.0613 15.8487 15.2583C15.8484 16.9106 15.848 18.5629 15.8473 20.2153C15.8295 20.2153 15.8118 20.2153 15.7934 20.2153C15.7959 20.2567 15.7959 20.2567 15.7985 20.299C15.7956 20.686 15.5673 21.101 15.335 21.381C15.3167 21.4031 15.2984 21.4252 15.2796 21.448C14.8986 21.8839 14.3819 22.1016 13.8331 22.1195C13.722 22.1215 13.611 22.1213 13.4998 22.1208C13.4493 22.121 13.3987 22.1211 13.3482 22.1213C13.2104 22.1217 13.0726 22.1216 12.9348 22.1214C12.7858 22.1213 12.6367 22.1216 12.4877 22.1219C12.1962 22.1224 11.9046 22.1224 11.6131 22.1223C11.3761 22.1222 11.1391 22.1222 10.9021 22.1224C10.8514 22.1224 10.8514 22.1224 10.7996 22.1224C10.731 22.1225 10.6623 22.1225 10.5937 22.1226C10.133 22.1229 9.67237 22.123 9.21173 22.1228C9.18475 22.1227 9.18475 22.1227 9.15723 22.1227C9.0112 22.1227 8.86517 22.1226 8.71915 22.1225C8.14954 22.1222 7.57994 22.1225 7.01033 22.1231C6.3694 22.1239 5.72848 22.1243 5.08755 22.1241C4.74854 22.124 4.40954 22.124 4.07053 22.1245C3.782 22.125 3.49347 22.125 3.20493 22.1245C3.05785 22.1242 2.91078 22.1242 2.7637 22.1246C2.62883 22.125 2.49396 22.1249 2.35909 22.1243C2.31054 22.1242 2.26198 22.1243 2.21343 22.1246C1.82972 22.1268 1.45887 22.0837 1.11346 21.8855C1.0957 21.8756 1.07794 21.8657 1.05964 21.8555C0.897097 21.761 0.767066 21.6399 0.638177 21.4975C0.620831 21.4801 0.603485 21.4627 0.585614 21.4448C0.464013 21.3214 0.372911 21.1858 0.287611 21.0313C0.270144 21 0.270144 21 0.252323 20.9682C0.00896831 20.4914 -0.00153485 19.9933 0.00100514 19.4627C0.000868888 19.3874 0.000673764 19.312 0.000425367 19.2366C-1.72656e-05 19.0735 3.39255e-05 18.9105 0.000420841 18.7474C0.000994622 18.5049 0.000789772 18.2624 0.000437506 18.0199C-0.000166462 17.5867 -7.18036e-06 17.1535 0.00047639 16.7203C0.000896899 16.3412 0.00105372 15.9621 0.00095247 15.583C0.000946085 15.5578 0.00093971 15.5326 0.000933131 15.5067C0.000906839 15.4044 0.000879387 15.3022 0.000850012 15.1999C0.000578385 14.2416 0.00106983 13.2832 0.00192109 12.3249C0.00267248 11.4741 0.00280617 10.6234 0.00240128 9.77266C0.0022982 9.55475 0.00219589 9.33683 0.00210008 9.11892C0.00208828 9.09209 0.00207645 9.06526 0.00206428 9.03762C0.00176096 8.32591 0.00195955 7.6142 0.00231261 6.90249C0.00235005 6.82588 0.0023872 6.74927 0.00242412 6.67266C0.00244864 6.62185 0.00247356 6.57103 0.0024988 6.52021C0.00268179 6.14139 0.00261063 5.76257 0.00241939 5.38375C0.00220425 4.95291 0.0023826 4.52206 0.00307117 4.09122C0.00344572 3.85032 0.00352807 3.60942 0.00318083 3.36852C0.00295501 3.18839 0.00329646 3.00826 0.00385442 2.82812C0.00399321 2.75545 0.00395206 2.68278 0.00370896 2.6101C0.00128863 1.82068 0.137741 1.18211 0.665144 0.602178C0.681691 0.58392 0.698237 0.565663 0.715285 0.546852C1.21037 0.0415389 1.7936 -0.00234916 2.43956 0.000930331Z" fill="black"/>
<path d="M9.48445 1.63405C9.7135 1.6854 9.87596 1.82233 10.0182 2.0178C10.0654 2.07583 10.1094 2.12077 10.1637 2.17003C10.3415 2.33701 10.5059 2.5193 10.6726 2.69893C10.7109 2.74008 10.7492 2.78122 10.7875 2.82236C10.9126 2.95679 11.0376 3.09137 11.1625 3.22598C11.2057 3.27247 11.2488 3.31897 11.292 3.36547C11.4716 3.55891 11.6511 3.75239 11.8306 3.94599C12.087 4.2227 12.3438 4.49916 12.6008 4.77528C12.7819 4.96991 12.9628 5.16482 13.1435 5.35994C13.2513 5.47628 13.3591 5.59249 13.4673 5.70841C13.569 5.81746 13.6704 5.92685 13.7715 6.03651C13.8086 6.07654 13.8457 6.11645 13.883 6.15622C14.0807 6.36727 14.2499 6.56012 14.3637 6.83922C14.3726 6.85846 14.3815 6.87769 14.3907 6.89751C14.394 6.94963 14.3954 7.00191 14.3957 7.05415C14.3961 7.08203 14.3965 7.1099 14.3969 7.13862C14.3903 7.22267 14.3817 7.26608 14.3368 7.33465C14.2265 7.42349 14.1448 7.43305 14.0088 7.43318C13.9801 7.43339 13.9801 7.43339 13.9508 7.43359C13.8868 7.43394 13.8229 7.43367 13.7589 7.43339C13.7129 7.43351 13.667 7.43367 13.6211 7.43386C13.4964 7.43425 13.3717 7.4341 13.247 7.43382C13.1164 7.4336 12.9859 7.43381 12.8553 7.43394C12.636 7.4341 12.4167 7.43389 12.1974 7.43348C11.944 7.433 11.6907 7.43315 11.4373 7.43364C11.2196 7.43403 11.002 7.43409 10.7844 7.43386C10.6544 7.43372 10.5245 7.43371 10.3945 7.43399C10.2723 7.43425 10.1501 7.43407 10.0279 7.43357C9.98307 7.43345 9.93827 7.43348 9.89348 7.43368C9.8322 7.43392 9.77094 7.43362 9.70966 7.43318C9.6754 7.43315 9.64115 7.43311 9.60586 7.43308C9.47643 7.41827 9.36891 7.37995 9.26903 7.28559C9.25669 7.26872 9.24435 7.25185 9.23164 7.23447C9.21895 7.21768 9.20626 7.20089 9.19319 7.18359C9.11048 7.05491 9.09833 6.96394 9.09766 6.80561C9.0975 6.78459 9.09734 6.76357 9.09717 6.74191C9.0967 6.67146 9.09662 6.60102 9.09654 6.53057C9.09629 6.48006 9.09602 6.42956 9.09573 6.37905C9.09502 6.24183 9.09467 6.1046 9.09443 5.96737C9.09428 5.88163 9.09405 5.79589 9.09381 5.71014C9.09308 5.44183 9.09255 5.17353 9.09235 4.90522C9.0921 4.59555 9.09116 4.2859 9.0896 3.97623C9.08843 3.73682 9.08789 3.49742 9.08781 3.25801C9.08776 3.11504 9.08744 2.97208 9.08648 2.82911C9.08559 2.6946 9.08547 2.56011 9.08594 2.4256C9.08598 2.37629 9.08575 2.32699 9.08522 2.27768C9.08095 1.85885 9.08095 1.85885 9.18294 1.72451C9.29441 1.62814 9.34684 1.62355 9.48445 1.63405Z" fill="white"/>
<path d="M3.6443 11.0315C3.67524 11.0314 3.70617 11.0313 3.73804 11.0311C3.77218 11.0311 3.80631 11.0312 3.84149 11.0312C3.878 11.0311 3.91451 11.031 3.95102 11.0308C4.05158 11.0305 4.15213 11.0304 4.25269 11.0304C4.36105 11.0302 4.46942 11.03 4.57779 11.0297C4.8396 11.0291 5.10142 11.0288 5.36324 11.0286C5.4865 11.0285 5.60977 11.0283 5.73303 11.0281C6.14274 11.0276 6.55245 11.0272 6.96216 11.027C7.0685 11.027 7.17484 11.0269 7.28118 11.0268C7.32083 11.0268 7.32082 11.0268 7.36127 11.0268C7.78949 11.0266 8.2177 11.0258 8.64591 11.0249C9.08546 11.0239 9.52499 11.0234 9.96454 11.0233C10.2114 11.0232 10.4582 11.023 10.705 11.0222C10.9152 11.0216 11.1254 11.0214 11.3356 11.0216C11.4428 11.0218 11.5501 11.0217 11.6573 11.0212C11.7555 11.0206 11.8538 11.0207 11.952 11.0211C12.0042 11.0212 12.0565 11.0208 12.1087 11.0203C12.2978 11.0218 12.4244 11.0394 12.5841 11.152C12.7383 11.3613 12.7381 11.5631 12.719 11.8223C12.678 11.9798 12.605 12.0838 12.4763 12.172C12.3763 12.2229 12.2979 12.2376 12.1877 12.2378C12.1568 12.238 12.1259 12.2382 12.0941 12.2384C12.0434 12.2382 12.0434 12.2382 11.9917 12.2381C11.9554 12.2382 11.919 12.2383 11.8827 12.2385C11.7828 12.2389 11.6829 12.2388 11.5831 12.2388C11.4753 12.2388 11.3676 12.2391 11.2599 12.2394C11.0489 12.2398 10.8378 12.24 10.6268 12.24C10.4553 12.2401 10.2838 12.2402 10.1122 12.2404C9.62602 12.2409 9.1398 12.2412 8.65358 12.2411C8.61426 12.2411 8.61426 12.2411 8.57415 12.2411C8.53478 12.2411 8.53478 12.2411 8.49462 12.2411C8.06918 12.2411 7.64374 12.2416 7.2183 12.2424C6.78153 12.2433 6.34476 12.2437 5.90799 12.2436C5.66275 12.2436 5.41751 12.2438 5.17227 12.2444C4.96348 12.2449 4.7547 12.2451 4.54592 12.2447C4.43939 12.2445 4.33287 12.2445 4.22635 12.245C4.1288 12.2454 4.03127 12.2454 3.93372 12.2448C3.88178 12.2447 3.82984 12.2452 3.77789 12.2456C3.57085 12.2438 3.44367 12.2218 3.28761 12.0672C3.1432 11.8654 3.15983 11.6587 3.17279 11.4143C3.20282 11.2476 3.29159 11.1594 3.41549 11.0646C3.49911 11.0345 3.55664 11.0317 3.6443 11.0315Z" fill="white"/>
<path d="M3.6487 14.8778C3.68733 14.8775 3.68733 14.8775 3.72673 14.8773C3.75508 14.8772 3.78343 14.8772 3.81264 14.8772C3.84271 14.877 3.87278 14.8769 3.90376 14.8767C4.00505 14.8762 4.10635 14.876 4.20764 14.8758C4.26161 14.8755 4.31558 14.8753 4.36955 14.8751C4.6057 14.8741 4.84184 14.8735 5.07799 14.873C5.13948 14.8728 5.20098 14.8727 5.26247 14.8726C5.6444 14.8717 6.02633 14.8709 6.40826 14.8704C6.49673 14.8703 6.5852 14.8702 6.67366 14.87C6.69565 14.87 6.71764 14.87 6.74029 14.8699C7.09638 14.8694 7.45247 14.8683 7.80856 14.8668C8.17421 14.8653 8.53985 14.8644 8.9055 14.8642C9.11077 14.8641 9.31604 14.8636 9.52131 14.8625C9.69616 14.8615 9.87099 14.8611 10.0458 14.8614C10.135 14.8616 10.2242 14.8614 10.3133 14.8606C10.4101 14.8598 10.5069 14.8601 10.6037 14.8606C10.6317 14.8601 10.6597 14.8596 10.6885 14.8591C10.8842 14.8619 11.0075 14.918 11.1556 15.0567C11.2863 15.2187 11.2795 15.3825 11.2738 15.5928C11.2556 15.7775 11.201 15.8941 11.073 16.0166C10.9732 16.0923 10.9061 16.1095 10.7872 16.1098C10.7613 16.11 10.7353 16.1101 10.7085 16.1103C10.6656 16.1103 10.6656 16.1103 10.6219 16.1103C10.5764 16.1105 10.5764 16.1105 10.53 16.1107C10.4278 16.1111 10.3256 16.1113 10.2235 16.1115C10.1504 16.1117 10.0774 16.1119 10.0044 16.1122C9.78483 16.1129 9.56529 16.1133 9.34575 16.1137C9.28375 16.1138 9.22174 16.1139 9.15974 16.114C8.77475 16.1148 8.38976 16.1154 8.00476 16.1158C7.91559 16.1159 7.82642 16.1159 7.73725 16.116C7.71509 16.1161 7.69292 16.1161 7.67009 16.1161C7.311 16.1165 6.95191 16.1174 6.59282 16.1187C6.22419 16.1199 5.85556 16.1206 5.48692 16.1207C5.27993 16.1208 5.07295 16.1212 4.86596 16.1221C4.68969 16.1229 4.51343 16.1233 4.33716 16.1229C4.24723 16.1228 4.15733 16.123 4.0674 16.1236C3.96986 16.1243 3.87235 16.124 3.77481 16.1236C3.74646 16.124 3.7181 16.1244 3.68889 16.1248C3.50799 16.1227 3.41647 16.0922 3.28133 15.9601C3.17046 15.812 3.16288 15.6601 3.15998 15.4756C3.15948 15.4544 3.15898 15.4332 3.15846 15.4113C3.16034 15.2382 3.21139 15.1345 3.32442 15.0088C3.4349 14.9136 3.50893 14.8783 3.6487 14.8778Z" fill="white"/>
</svg>
