<svg width="338" height="556" viewBox="0 0 338 556" fill="none" xmlns="http://www.w3.org/2000/svg">
  <path fill="#E2E7EA" fill-opacity="0.78" d="M281 0c12 18 32 21 44 38-5 10-18 9-28 14 8 10 25 15 27 31-8 8-21 4-30 11-12 9-14 25-27 34-18 13-43 13-60 28-12 11-14 30-29 37-19 10-43 3-60 17-13 10-12 29-25 39-18 13-44 9-58 26-12 16-2 40-16 54-9 10-24 9-31 21-7 11-2 26-10 37 16 9 39 4 50 21 9 14 1 33 8 48 7 16 27 21 34 37 6 14-1 30 7 43 6 11 18 16 26 25-7 9-19 7-27 1-16-11-23-29-37-43-15-14-38-20-44-40-4-14 5-28 1-42-4-17-22-27-23-45-1-16 13-27 14-43 1-16-11-29-8-44 4-17 23-23 29-39 6-15-2-34 7-48 9-14 30-15 40-29 10-15 4-37 17-50 14-15 39-11 55-23 13-10 16-29 30-38 18-11 43-7 61-18 15-9 21-28 37-36 12-6 27-3 38-11-12-12-29-19-34-36-3-10 0-21-7-30L281 0Z"/>
  <path fill="#E2E7EA" fill-opacity="0.68" d="M122 391c15 2 34 8 39 23 4 10-3 20-13 25-13 7-31 0-40-11-8-10-11-26-1-34 4-4 10-4 15-3Z"/>
  <path fill="#E2E7EA" fill-opacity="0.55" d="M175 500c12 5 24 14 25 27 1 9-7 17-16 18-12 1-23-8-29-18-5-10-2-25 9-29 4-1 8 0 11 2Z"/>
</svg>
