<svg width="22" height="20" viewBox="0 0 22 20" fill="none" xmlns="http://www.w3.org/2000/svg">
<path d="M6.12753 4.19392C6.15098 4.1939 6.17444 4.19388 6.1986 4.19385C6.27681 4.19381 6.35501 4.19395 6.43321 4.19408C6.48942 4.19409 6.54564 4.19409 6.60185 4.19407C6.7542 4.19407 6.90655 4.19421 7.05889 4.19438C7.2182 4.19454 7.37751 4.19455 7.53683 4.19458C7.80413 4.19465 8.07144 4.1948 8.33875 4.19502C8.61401 4.19525 8.88927 4.19542 9.16453 4.19552C9.18152 4.19553 9.1985 4.19554 9.216 4.19554C9.3012 4.19558 9.3864 4.19561 9.47161 4.19564C10.1778 4.19589 10.8841 4.19633 11.5903 4.19687C11.5885 4.21833 11.5868 4.23978 11.585 4.26188C11.5828 4.29028 11.5805 4.31868 11.5782 4.34794C11.5759 4.37598 11.5737 4.40403 11.5714 4.43292C11.5632 4.55253 11.5621 4.67158 11.5626 4.79142C11.5625 4.81324 11.5624 4.83505 11.5623 4.85753C11.5625 5.00964 11.5694 5.16094 11.5782 5.31274C11.5793 5.33314 11.5805 5.35354 11.5817 5.37456C11.5845 5.42445 11.5874 5.47434 11.5903 5.52424C11.5463 5.52426 11.5463 5.52426 11.5014 5.52428C10.8041 5.52462 10.1068 5.5256 9.40951 5.52735C9.32355 5.52757 9.23759 5.52778 9.15163 5.52799C9.13452 5.52803 9.11741 5.52807 9.09978 5.52811C8.82327 5.52877 8.54676 5.52899 8.27024 5.52905C7.98619 5.52913 7.70214 5.52968 7.41809 5.53064C7.25867 5.53116 7.09927 5.53147 6.93986 5.53127C6.78962 5.53108 6.6394 5.53148 6.48916 5.5323C6.43421 5.5325 6.37926 5.5325 6.3243 5.53226C5.82891 5.53037 5.43193 5.62426 5.06053 5.976C4.81891 6.24398 4.70212 6.61715 4.56748 6.94559C4.5352 7.02412 4.50245 7.10245 4.46962 7.18075C4.42807 7.28032 4.38842 7.38026 4.35103 7.48148C4.30607 7.59987 4.25418 7.71105 4.19586 7.82331C4.15412 7.91007 4.12373 7.99999 4.09206 8.09081C4.06483 8.1638 4.03073 8.2307 3.9946 8.29956C3.96549 8.36051 3.94326 8.42251 3.92086 8.48622C3.8856 8.58631 3.84514 8.67946 3.79622 8.77351C3.76005 8.84401 3.72992 8.91697 3.69962 8.99012C3.67914 9.03929 3.65865 9.08845 3.63817 9.13761C3.62762 9.16299 3.61706 9.18837 3.60619 9.21452C3.58283 9.27044 3.55922 9.32623 3.53523 9.38188C3.52459 9.40672 3.51394 9.43156 3.50297 9.45716C3.48852 9.48682 3.48852 9.48682 3.47378 9.51707C3.43711 9.63272 3.436 9.73574 3.48453 9.84738C3.53957 9.91421 3.58906 9.94422 3.67563 9.95493C3.6934 9.95493 3.71116 9.95493 3.72947 9.95494C3.75012 9.95506 3.77077 9.95518 3.79205 9.95531C3.81465 9.95519 3.83726 9.95508 3.86055 9.95496C3.89682 9.95507 3.89682 9.95507 3.93382 9.95518C4.01547 9.95536 4.09713 9.95519 4.17878 9.95502C4.23767 9.95507 4.29655 9.95515 4.35543 9.95525C4.48379 9.95541 4.61215 9.95542 4.74051 9.9553C4.9314 9.95511 5.12229 9.9552 5.31318 9.95536C5.65417 9.95561 5.99516 9.95559 6.33615 9.95545C6.63477 9.95533 6.93338 9.95529 7.232 9.95535C7.26169 9.95536 7.26169 9.95536 7.29199 9.95536C7.37235 9.95538 7.45271 9.9554 7.53307 9.95541C8.28755 9.95556 9.04203 9.95543 9.79651 9.95516C10.4664 9.95493 11.1362 9.95495 11.806 9.95518C12.5586 9.95545 13.3112 9.95555 14.0637 9.9554C14.1441 9.95538 14.2244 9.95537 14.3047 9.95535C14.3245 9.95535 14.3443 9.95534 14.3646 9.95534C14.6628 9.95529 14.9609 9.95535 15.2591 9.95547C15.5985 9.95562 15.9379 9.95558 16.2773 9.95531C16.467 9.95517 16.6568 9.95516 16.8465 9.95534C16.9886 9.95547 17.1306 9.95533 17.2726 9.9551C17.3298 9.95505 17.387 9.95507 17.4442 9.95519C18.3659 9.95697 19.4438 9.79965 20.1821 9.19107C20.4246 8.99537 20.6179 8.95106 20.9264 8.96433C20.9917 8.9671 21.0569 8.96785 21.1223 8.96828C21.4003 8.97266 21.6164 9.00122 21.8284 9.19551C21.9734 9.35407 21.9922 9.51622 21.9941 9.72323C21.9943 9.74439 21.9945 9.76555 21.9947 9.78735C21.995 9.83212 21.9953 9.87689 21.9955 9.92167C21.9958 9.96717 21.9963 10.0127 21.997 10.0582C21.9981 10.1242 21.9985 10.1903 21.9987 10.2563C21.9991 10.2764 21.9996 10.2964 22 10.3171C21.9993 10.501 21.9374 10.6382 21.8377 10.7907C21.6397 10.98 21.3023 11.0795 21.0296 11.0795C21.0296 11.097 21.0296 11.1145 21.0297 11.1325C21.0319 12.1699 21.0336 13.2073 21.0346 14.2447C21.0347 14.3693 21.0348 14.4938 21.035 14.6184C21.035 14.6556 21.035 14.6556 21.035 14.6935C21.0355 15.0951 21.0362 15.4966 21.0371 15.8981C21.0381 16.3101 21.0386 16.7221 21.0388 17.1341C21.0389 17.3883 21.0394 17.6426 21.0402 17.8968C21.0407 18.0711 21.0408 18.2454 21.0407 18.4197C21.0407 18.5203 21.0408 18.6209 21.0413 18.7215C21.0418 18.8136 21.0418 18.9057 21.0414 18.9979C21.0414 19.0469 21.0418 19.0959 21.0423 19.145C21.0411 19.3197 21.0268 19.4365 20.9312 19.5844C20.8166 19.6962 20.7057 19.738 20.5469 19.7383C20.5193 19.7385 20.4917 19.7387 20.4633 19.7389C20.4182 19.7388 20.4182 19.7388 20.3722 19.7387C20.3404 19.7388 20.3086 19.7389 20.2758 19.7391C20.1886 19.7394 20.1015 19.7394 20.0143 19.7393C19.9414 19.7393 19.8686 19.7394 19.7957 19.7395C19.6237 19.7398 19.4517 19.7398 19.2796 19.7397C19.1025 19.7395 18.9253 19.7398 18.7482 19.7404C18.5959 19.7408 18.4435 19.7409 18.2912 19.7409C18.2003 19.7408 18.1094 19.7409 18.0186 19.7412C17.9171 19.7416 17.8157 19.7414 17.7142 19.7411C17.6843 19.7413 17.6544 19.7414 17.6236 19.7416C17.2839 19.7395 17.2839 19.7395 17.1567 19.6234C17.052 19.5038 17.0438 19.4047 17.0443 19.2527C17.0442 19.2246 17.0442 19.2246 17.0441 19.196C17.044 19.1553 17.044 19.1147 17.044 19.074C17.0439 18.9876 17.0434 18.9011 17.0429 18.8147C17.0419 18.6537 17.0412 18.4928 17.0412 18.3318C17.0412 18.2198 17.0406 18.1079 17.0397 17.9959C17.0394 17.9533 17.0394 17.9107 17.0396 17.868C17.0398 17.8083 17.0393 17.7486 17.0386 17.6889C17.0389 17.6714 17.0391 17.6539 17.0394 17.6358C17.0371 17.5268 17.0112 17.4602 16.9389 17.3785C16.8678 17.3222 16.7871 17.3275 16.7008 17.3291C16.6808 17.3289 16.6608 17.3287 16.6401 17.3285C16.5727 17.328 16.5054 17.3285 16.438 17.329C16.3893 17.3289 16.3406 17.3287 16.2919 17.3284C16.1579 17.3278 16.0239 17.3282 15.8899 17.3287C15.7454 17.329 15.601 17.3286 15.4566 17.3282C15.1735 17.3277 14.8905 17.3279 14.6074 17.3284C14.3774 17.3288 14.1475 17.3289 13.9175 17.3288C13.9011 17.3288 13.8848 17.3288 13.868 17.3288C13.8017 17.3288 13.7354 17.3287 13.6691 17.3287C13.0471 17.3284 12.425 17.3289 11.8029 17.3298C11.2501 17.3306 10.6973 17.3307 10.1444 17.3302C10.0028 17.3301 9.86129 17.33 9.71973 17.3298C9.7023 17.3298 9.68488 17.3298 9.66692 17.3298C9.20517 17.3294 8.74343 17.3296 8.28168 17.33C8.232 17.3301 8.18233 17.3301 8.13265 17.3301C8.0997 17.3302 8.06674 17.3302 8.03379 17.3302C7.78758 17.3304 7.54136 17.3303 7.29515 17.3301C7.01524 17.3298 6.73533 17.33 6.45541 17.3308C6.31251 17.3311 6.16962 17.3313 6.02672 17.3309C5.89602 17.3306 5.76533 17.3309 5.63463 17.3316C5.58724 17.3317 5.53985 17.3317 5.49246 17.3314C5.42823 17.3311 5.36404 17.3315 5.29982 17.3321C5.28125 17.3318 5.26267 17.3315 5.24354 17.3312C5.14757 17.333 5.10439 17.3448 5.02781 17.4045C4.96303 17.4901 4.96107 17.5594 4.96321 17.6626C4.96306 17.6911 4.96306 17.6911 4.96291 17.7201C4.96277 17.7611 4.96292 17.8021 4.96332 17.8432C4.96394 17.9082 4.96382 17.9731 4.96352 18.0381C4.96301 18.1762 4.96349 18.3142 4.96403 18.4522C4.96455 18.6121 4.96466 18.7719 4.96402 18.9318C4.96394 18.9958 4.96446 19.0597 4.96501 19.1236C4.96495 19.1629 4.96486 19.2023 4.96475 19.2416C4.96506 19.2593 4.96538 19.277 4.96571 19.2952C4.96447 19.4194 4.93209 19.4884 4.85495 19.5844C4.73666 19.6936 4.63222 19.738 4.47156 19.7383C4.44417 19.7385 4.41678 19.7387 4.38855 19.7389C4.35873 19.7388 4.32891 19.7387 4.29819 19.7387C4.2666 19.7388 4.23501 19.7389 4.20246 19.7391C4.11597 19.7394 4.02947 19.7394 3.94298 19.7393C3.87065 19.7393 3.79833 19.7394 3.72601 19.7395C3.55529 19.7398 3.38457 19.7398 3.21386 19.7397C3.03804 19.7395 2.86224 19.7398 2.68643 19.7404C2.53524 19.7408 2.38405 19.7409 2.23286 19.7409C2.14268 19.7408 2.05249 19.7409 1.9623 19.7412C1.86163 19.7416 1.76096 19.7414 1.66029 19.7411C1.63062 19.7413 1.60095 19.7414 1.57038 19.7416C1.23239 19.7395 1.23239 19.7395 1.10591 19.6242C1.00549 19.5093 0.964981 19.4218 0.964645 19.2705C0.964462 19.2414 0.964278 19.2122 0.964089 19.1822C0.964137 19.1502 0.964184 19.1181 0.964233 19.0851C0.96411 19.0508 0.963966 19.0164 0.963802 18.9821C0.963413 18.8876 0.963329 18.7931 0.963294 18.6985C0.963203 18.5967 0.962831 18.4948 0.962492 18.3929C0.961944 18.2164 0.961576 18.0398 0.961328 17.8633C0.96097 17.6081 0.960342 17.3528 0.959649 17.0976C0.95853 16.6835 0.95763 16.2694 0.956867 15.8553C0.956126 15.453 0.955281 15.0507 0.954299 14.6484C0.954238 14.6236 0.954178 14.5988 0.954115 14.5732C0.953811 14.4489 0.953505 14.3245 0.953198 14.2001C0.950651 13.1681 0.948459 12.1361 0.946497 11.1041C0.93236 11.1007 0.918224 11.0973 0.903659 11.0939C0.838969 11.0783 0.774339 11.0626 0.709708 11.0468C0.68747 11.0415 0.665232 11.0363 0.642319 11.0308C0.395001 10.9701 0.22612 10.8897 0.0899863 10.6677C0.0181086 10.528 0.00455173 10.4193 0.00414317 10.264C0.00397954 10.2423 0.0038159 10.2205 0.00364731 10.1982C0.00339895 10.1523 0.00328307 10.1064 0.00329098 10.0605C0.0031837 9.99074 0.00229095 9.92102 0.00135855 9.85127C0.00121424 9.80654 0.00111671 9.76181 0.00107049 9.71708C0.000717227 9.69644 0.000363966 9.67579 0 9.65452C0.00142213 9.46868 0.0672274 9.31177 0.193561 9.17297C0.412053 8.98016 0.636643 8.9699 0.912217 8.97572C0.95096 8.976 0.989704 8.97621 1.02845 8.97635C1.12953 8.97691 1.23058 8.97836 1.33164 8.98C1.43513 8.98152 1.53863 8.98218 1.64212 8.98292C1.84454 8.9845 2.04692 8.98701 2.24932 8.99012C2.25355 8.97673 2.25779 8.96334 2.26216 8.94955C2.30678 8.81177 2.35882 8.67922 2.41668 8.54652C2.4256 8.52583 2.43453 8.50515 2.44372 8.48384C2.46274 8.43976 2.4818 8.3957 2.50089 8.35166C2.551 8.23606 2.6008 8.12033 2.65059 8.00459C2.66048 7.98161 2.67037 7.95862 2.68056 7.93494C2.77757 7.70917 2.87188 7.48235 2.9651 7.255C3.18514 6.71855 3.18514 6.71855 3.25716 6.58428C3.30666 6.48878 3.34289 6.38853 3.38006 6.28778C3.43267 6.14536 3.48664 6.00546 3.55213 5.86837C3.55852 5.85444 3.5649 5.84051 3.57148 5.82617C3.7914 5.34799 4.13014 4.91642 4.58456 4.63933C4.61806 4.61794 4.61806 4.61794 4.65225 4.59612C5.09899 4.3213 5.60491 4.19219 6.12753 4.19392Z" fill="black"/>
<path d="M19.1619 0.386507C19.1807 0.395272 19.1996 0.404037 19.219 0.413068C19.6979 0.636349 20.1266 0.911263 20.5139 1.27141C20.528 1.28449 20.5422 1.29756 20.5567 1.31102C21.3775 2.07748 21.9567 3.22782 21.9965 4.35865C21.9988 4.45312 21.9996 4.54755 21.9995 4.64205C21.9995 4.65972 21.9995 4.67739 21.9995 4.6956C21.9984 5.04296 21.9701 5.39037 21.8858 5.72822C21.8806 5.74959 21.8753 5.77097 21.8699 5.793C21.7771 6.15783 21.6485 6.50229 21.4704 6.83386C21.4502 6.87167 21.4307 6.90988 21.4114 6.94813C21.1606 7.43349 20.7684 7.91096 20.3418 8.25235C20.3195 8.27064 20.2972 8.28892 20.2743 8.30776C20.0563 8.48332 19.8218 8.62856 19.5798 8.76855C19.5635 8.778 19.5472 8.78746 19.5304 8.7972C18.5284 9.37158 17.2519 9.51917 16.138 9.2318C16.0309 9.20247 15.9247 9.17075 15.8188 9.13726C15.7913 9.12861 15.7638 9.11996 15.7355 9.11105C15.593 9.0624 15.4607 8.99763 15.3277 8.92746C15.2713 8.9001 15.2191 8.87894 15.1603 8.85861C15.0407 8.81483 14.9376 8.74979 14.8309 8.68098C14.8104 8.66784 14.79 8.6547 14.7688 8.64117C13.7394 7.97362 13.0198 6.97512 12.697 5.79428C12.6819 5.72096 12.6692 5.64815 12.659 5.57401C12.6495 5.51073 12.6369 5.44991 12.623 5.38751C12.597 5.25782 12.5907 5.13315 12.5904 5.00116C12.5902 4.9777 12.59 4.95423 12.5899 4.93005C12.5896 4.88056 12.5895 4.83106 12.5895 4.78157C12.5894 4.70778 12.5885 4.63403 12.5876 4.56024C12.5807 3.36853 13.1065 2.26754 13.926 1.4189C13.9456 1.39802 13.9653 1.37714 13.9855 1.35562C14.4727 0.849294 15.105 0.47862 15.7677 0.256174C15.812 0.241298 15.8561 0.225767 15.9001 0.210121C16.0673 0.153811 16.2372 0.119074 16.4103 0.086929C16.4324 0.0828197 16.4545 0.0787104 16.4772 0.0744766C17.353 -0.0798937 18.3532 -0.00290123 19.1619 0.386507Z" fill="black"/>
<path d="M19.5865 2.5424C19.7513 2.63487 19.9564 2.83753 20.0222 3.01587C20.0305 3.0777 20.0305 3.0777 20.0315 3.14492C20.0321 3.16684 20.0328 3.18877 20.0336 3.21136C20.0041 3.40644 19.8842 3.5382 19.7503 3.67494C19.7334 3.69262 19.7164 3.7103 19.6989 3.72851C19.5433 3.88993 19.3846 4.04835 19.2248 4.20566C19.124 4.30534 19.0283 4.40706 18.9359 4.51457C18.834 4.62906 18.7223 4.73452 18.613 4.84195C18.5111 4.94288 18.414 5.0457 18.3205 5.15449C18.2239 5.26324 18.1181 5.36333 18.0143 5.46521C17.9324 5.54625 17.8525 5.6275 17.7776 5.71514C17.6494 5.86423 17.5066 5.99982 17.3667 6.13785C17.2344 6.26857 17.1035 6.39913 16.9833 6.5413C16.8728 6.6684 16.7617 6.71618 16.5949 6.7339C16.4201 6.74186 16.3108 6.69482 16.1798 6.57891C16.1136 6.51504 16.0486 6.45008 15.984 6.38458C15.9598 6.36038 15.9357 6.33619 15.9115 6.31202C15.8611 6.26147 15.8108 6.2108 15.7606 6.16003C15.6967 6.09546 15.6326 6.03111 15.5684 5.96683C15.5066 5.9049 15.4449 5.84286 15.3832 5.78082C15.3605 5.75795 15.3377 5.73508 15.3143 5.71151C15.2039 5.59999 15.0965 5.48744 14.9948 5.36792C14.9472 5.31359 14.8957 5.26405 14.8434 5.2143C14.6839 5.06221 14.5653 4.93928 14.5529 4.71194C14.5647 4.4841 14.6865 4.35234 14.8475 4.1993C14.9738 4.0915 15.0932 4.0556 15.2599 4.06335C15.481 4.09454 15.6389 4.24447 15.7865 4.40007C15.8039 4.4178 15.8213 4.43553 15.8392 4.45379C15.921 4.53782 16.0001 4.62345 16.0767 4.71223C16.1696 4.81963 16.2694 4.91942 16.3703 5.0192C16.3883 5.03707 16.4063 5.05494 16.4248 5.07335C16.4686 5.11681 16.5124 5.16021 16.5562 5.20356C16.572 5.18774 16.5878 5.17193 16.6041 5.15564C16.6632 5.09652 16.7225 5.03763 16.7819 4.97878C16.8204 4.94053 16.8588 4.90228 16.8973 4.86403C16.926 4.83568 16.926 4.83568 16.9552 4.80676C17.0584 4.70403 17.1568 4.59929 17.2517 4.48892C17.3378 4.39174 17.4319 4.30237 17.5246 4.21159C17.6003 4.13688 17.6732 4.06152 17.7423 3.98066C17.8712 3.83116 18.0143 3.69497 18.1548 3.55642C18.2847 3.4281 18.4123 3.29958 18.531 3.16065C18.6072 3.07413 18.6897 2.99389 18.7717 2.91294C18.7886 2.89609 18.8056 2.87925 18.823 2.8619C18.8558 2.82936 18.8886 2.79688 18.9215 2.76445C18.9586 2.72753 18.9949 2.68987 19.0311 2.65205C19.1888 2.50257 19.3784 2.47482 19.5865 2.5424Z" fill="white"/>
<path d="M6.45846 12.4063C6.55962 12.4682 6.65056 12.5447 6.70428 12.6522C6.71191 12.7765 6.71305 12.9009 6.71423 13.0255C6.71476 13.067 6.71559 13.1084 6.71675 13.1498C6.72648 13.4997 6.68085 13.7606 6.45385 14.041C6.30859 14.1904 6.11786 14.3156 5.90486 14.3269C5.88139 14.327 5.85793 14.3272 5.83375 14.3273C5.79323 14.3275 5.79323 14.3275 5.75188 14.3278C5.72236 14.3279 5.69283 14.3279 5.66241 14.328C5.63122 14.3282 5.60004 14.3283 5.56791 14.3285C5.46461 14.329 5.36131 14.3293 5.258 14.3295C5.22239 14.3296 5.18679 14.3297 5.15118 14.3298C4.98391 14.3303 4.81665 14.3306 4.64939 14.3308C4.45646 14.3311 4.26353 14.3317 4.07061 14.3327C3.92136 14.3334 3.77212 14.3338 3.62287 14.3339C3.53378 14.334 3.4447 14.3342 3.35561 14.3348C3.25622 14.3355 3.15684 14.3354 3.05745 14.3352C3.01331 14.3357 3.01331 14.3357 2.96827 14.3362C2.81377 14.3352 2.71515 14.332 2.59917 14.2253C2.51819 14.107 2.51285 13.9999 2.51467 13.8612C2.51486 13.8415 2.51504 13.8218 2.51524 13.8016C2.51936 13.6537 2.54046 13.539 2.62375 13.4142C2.63418 13.3971 2.6446 13.3801 2.65534 13.3626C2.78415 13.1706 2.96912 13.0555 3.19441 13.0098C3.29662 12.9906 3.39917 12.9736 3.50177 12.9565C3.71362 12.9208 3.92262 12.8776 4.13185 12.829C4.40975 12.7647 4.68902 12.707 4.96818 12.6486C4.98748 12.6445 5.00677 12.6405 5.02666 12.6363C5.06477 12.6284 5.10288 12.6204 5.14099 12.6125C5.22794 12.5943 5.31483 12.576 5.4016 12.557C5.54477 12.5257 5.68618 12.4964 5.83163 12.4785C5.91404 12.4684 5.98673 12.4571 6.06545 12.4304C6.19635 12.3875 6.32304 12.3818 6.45846 12.4063Z" fill="white"/>
<path d="M3.59105 12.4628C3.63361 12.4707 3.63361 12.4707 3.67703 12.4787C3.82457 12.5068 3.96664 12.541 4.1098 12.5861C4.20336 12.6131 4.29835 12.627 4.39455 12.6411C4.43208 12.6466 4.4696 12.6523 4.50709 12.658C4.53139 12.6616 4.53139 12.6616 4.55618 12.6652C4.60964 12.6764 4.60964 12.6764 4.67996 12.7003C4.75838 12.726 4.8331 12.7408 4.91451 12.7538C4.94433 12.7587 4.97416 12.7635 5.00488 12.7686C5.03618 12.7736 5.06749 12.7787 5.09973 12.7839C5.32574 12.8213 5.54649 12.8627 5.7667 12.9262C5.83201 12.9449 5.89653 12.9599 5.96316 12.9729C5.98217 12.9766 6.00118 12.9803 6.02077 12.9841C6.06985 12.9932 6.11904 13.0018 6.16826 13.0101C6.4208 13.0567 6.60361 13.1386 6.7659 13.3419C6.90786 13.5553 6.93869 13.7762 6.9203 14.0283C6.89196 14.1537 6.83042 14.2275 6.72365 14.2987C6.66134 14.3299 6.61748 14.3268 6.54771 14.3274C6.5074 14.3278 6.5074 14.3278 6.46627 14.3283C6.43665 14.3285 6.40703 14.3286 6.37651 14.3288C6.3454 14.3291 6.3143 14.3294 6.28226 14.3297C6.17884 14.3306 6.07542 14.3312 5.97199 14.3317C5.95436 14.3318 5.93674 14.3319 5.91857 14.332C5.75208 14.3329 5.58558 14.3337 5.41909 14.3342C5.20667 14.3349 4.99427 14.3362 4.78186 14.3382C4.63226 14.3396 4.48267 14.3403 4.33306 14.3405C4.24387 14.3406 4.15471 14.3411 4.06553 14.3422C3.30294 14.3517 3.30294 14.3517 3.02325 14.0937C2.8276 13.8914 2.7333 13.6698 2.73492 13.3869C2.73487 13.3685 2.73483 13.35 2.73478 13.331C2.73474 13.2923 2.73483 13.2535 2.73504 13.2148C2.7353 13.1559 2.73504 13.097 2.73473 13.0381C2.73476 13.0002 2.73482 12.9624 2.73492 12.9245C2.73482 12.9071 2.73472 12.8897 2.73462 12.8718C2.73578 12.7468 2.74343 12.6107 2.82595 12.5107C3.06333 12.3386 3.31626 12.4091 3.59105 12.4628Z" fill="white"/>
</svg>
