<svg width="20" height="21" viewBox="0 0 20 21" fill="none" xmlns="http://www.w3.org/2000/svg">
<path d="M14.6143 0.333965C15.1265 0.738952 15.237 1.30755 15.3709 1.91299C15.3757 1.9344 15.3804 1.95581 15.3853 1.97787C15.431 2.18403 15.4765 2.39024 15.5207 2.59673C15.57 2.82654 15.6221 3.05482 15.6821 3.28208C15.6999 3.36044 15.6999 3.36044 15.6999 3.45912C15.6579 3.45914 15.6579 3.45914 15.6151 3.45915C13.9578 3.45959 12.3006 3.46089 10.6433 3.4633C10.4444 3.46359 10.2455 3.46387 10.0467 3.46414C10.0071 3.4642 9.96748 3.46425 9.92668 3.46431C9.28513 3.46519 8.64359 3.46549 8.00204 3.46557C7.344 3.46567 6.68597 3.4664 6.02793 3.46769C5.62172 3.46848 5.21552 3.46877 4.80931 3.46845C4.53094 3.46828 4.25259 3.4687 3.97422 3.46961C3.8135 3.47011 3.65279 3.47035 3.49206 3.46987C3.34498 3.46944 3.19792 3.46976 3.05084 3.47069C2.99757 3.47089 2.9443 3.47081 2.89104 3.47043C2.8187 3.46995 2.74643 3.47048 2.67409 3.47127C2.63389 3.47131 2.5937 3.47134 2.55228 3.47138C2.40566 3.49901 2.35094 3.55246 2.24539 3.6565C2.18466 3.77796 2.20117 3.91841 2.21249 4.05126C2.25724 4.16811 2.29168 4.20393 2.39834 4.26855C2.52557 4.32152 2.61711 4.32678 2.75471 4.32681C2.77892 4.32695 2.80313 4.32709 2.82808 4.32724C2.90927 4.32759 2.99045 4.32723 3.07164 4.32688C3.13042 4.32699 3.1892 4.32714 3.24797 4.32734C3.40955 4.32774 3.57111 4.32753 3.73269 4.32722C3.90693 4.327 4.08117 4.32734 4.25541 4.32762C4.5574 4.32804 4.85939 4.3281 5.16138 4.32794C5.59844 4.32772 6.03549 4.32813 6.47255 4.32872C7.1822 4.32966 7.89185 4.33023 8.6015 4.33051C8.64399 4.33053 8.68647 4.33054 8.73023 4.33056C9.03171 4.33068 9.33319 4.33078 9.63466 4.33088C9.97869 4.33099 10.3227 4.33111 10.6668 4.33125C10.7091 4.33127 10.7515 4.33128 10.7952 4.3313C11.5019 4.33159 12.2086 4.33226 12.9154 4.33321C13.3512 4.33377 13.7871 4.33399 14.223 4.33376C14.5218 4.33362 14.8206 4.33383 15.1193 4.33431C15.2917 4.33457 15.464 4.33468 15.6364 4.33435C15.7943 4.33405 15.9522 4.3342 16.1101 4.33472C16.1671 4.33482 16.2241 4.33476 16.281 4.33451C16.7041 4.33281 17.0792 4.38063 17.4639 4.56732C17.4878 4.57877 17.5116 4.59023 17.5362 4.60203C17.7362 4.70136 17.9048 4.81986 18.0684 4.97236C18.0932 4.9942 18.118 5.01604 18.1436 5.03854C18.5743 5.43826 18.8768 6.02875 18.9237 6.61718C18.9281 6.77926 18.9275 6.9413 18.9269 7.10343C18.9268 7.15026 18.9268 7.19708 18.9268 7.24391C18.9266 7.36635 18.9263 7.48878 18.9259 7.61122C18.9256 7.73648 18.9255 7.86175 18.9253 7.98701C18.9249 8.23219 18.9244 8.47737 18.9237 8.72255C18.8908 8.72267 18.8908 8.72267 18.8572 8.72279C18.3217 8.72474 17.7863 8.72723 17.2508 8.73031C16.9918 8.73178 16.7328 8.73308 16.4739 8.73395C16.2479 8.73471 16.022 8.73581 15.796 8.73731C15.6766 8.73809 15.5572 8.73871 15.4377 8.73892C14.6852 8.69915 14.6852 8.69915 13.9893 8.91993C13.9259 8.93885 13.8621 8.9565 13.7981 8.97339C13.0087 9.21167 12.3383 9.8532 11.9421 10.5612C11.5024 11.3841 11.3866 12.3302 11.6537 13.2294C11.9504 14.0631 12.4948 14.789 13.2656 15.236C13.2939 15.2533 13.3222 15.2705 13.3514 15.2882C13.8339 15.5694 14.3453 15.6732 14.8979 15.6742C14.942 15.6745 14.9861 15.6748 15.0302 15.6752C15.149 15.6761 15.2678 15.6766 15.3866 15.677C15.5111 15.6775 15.6356 15.6784 15.7601 15.6792C15.9954 15.6808 16.2308 15.682 16.4661 15.6831C16.7342 15.6843 17.0023 15.686 17.2704 15.6876C17.8215 15.691 18.3726 15.694 18.9237 15.6966C18.9275 15.9431 18.9304 16.1897 18.9322 16.4363C18.9331 16.5508 18.9342 16.6654 18.9361 16.7799C18.9509 17.6988 18.8411 18.5167 18.1811 19.2028C17.8724 19.5094 17.5222 19.7281 17.1144 19.8744C17.0849 19.8857 17.0553 19.897 17.0249 19.9086C16.7117 20.0183 16.425 20.0247 16.0977 20.023C16.039 20.0231 15.9802 20.0234 15.9214 20.0236C15.7608 20.0243 15.6003 20.0241 15.4397 20.0237C15.2662 20.0235 15.0927 20.024 14.9191 20.0244C14.5795 20.0251 14.2398 20.0251 13.9002 20.0249C13.6239 20.0247 13.3477 20.0247 13.0714 20.0249C13.032 20.0249 12.9927 20.025 12.9521 20.025C12.8721 20.0251 12.7921 20.0251 12.7121 20.0252C11.9623 20.0257 11.2125 20.0254 10.4628 20.0249C9.77784 20.0244 9.09292 20.0249 8.40799 20.0258C7.70377 20.0268 6.99955 20.0272 6.29533 20.0268C6.21556 20.0268 6.13578 20.0268 6.05601 20.0268C6.01677 20.0267 5.97752 20.0267 5.93709 20.0267C5.66152 20.0266 5.38595 20.027 5.11038 20.0274C4.77403 20.028 4.43769 20.028 4.10134 20.0273C3.92996 20.0269 3.75859 20.0268 3.58722 20.0274C3.42988 20.028 3.27256 20.0277 3.11523 20.0269C3.05876 20.0268 3.00229 20.0269 2.94582 20.0273C2.18466 20.0327 1.50174 19.8321 0.929544 19.3152C0.904652 19.2934 0.879761 19.2715 0.854115 19.249C0.378725 18.8064 0.0302116 18.1188 0.00429358 17.4671C0.00427041 17.4292 0.00424718 17.3913 0.00422331 17.3522C0.00416564 17.3309 0.00410804 17.3096 0.00404863 17.2876C0.00389577 17.2163 0.00397566 17.1449 0.00405566 17.0735C0.00399419 17.0218 0.00391946 16.9701 0.00383078 16.9184C0.00362953 16.7763 0.00363339 16.6342 0.00367216 16.4922C0.00367888 16.3389 0.00349789 16.1857 0.00334188 16.0324C0.00306859 15.7321 0.00297773 15.4319 0.00295939 15.1316C0.00294376 14.8875 0.00287596 14.6434 0.00277166 14.3993C0.00248193 13.7071 0.00233037 13.0148 0.00235504 12.3226C0.00235635 12.2853 0.0023577 12.248 0.00235905 12.2095C0.0023604 12.1722 0.00236168 12.1348 0.00236307 12.0963C0.00237643 11.4909 0.00206203 10.8856 0.00159809 10.2802C0.00112539 9.65855 0.000898067 9.03685 0.000926476 8.41515C0.000937392 8.06617 0.000847071 7.71719 0.000492788 7.36821C0.000193019 7.07102 0.000122065 6.77384 0.000345214 6.47665C0.000452507 6.3251 0.000455338 6.17354 0.00016953 6.02199C-8.97595e-05 5.88306 -4.13823e-05 5.74414 0.000244823 5.60522C0.000295195 5.55514 0.000236064 5.50507 5.20726e-05 5.45499C-0.00289882 4.5944 0.243647 3.87443 0.837024 3.23913C1.02161 3.06101 1.23605 2.931 1.45588 2.8012C1.47997 2.78695 1.50405 2.7727 1.52887 2.75802C1.81504 2.60281 2.127 2.53676 2.44687 2.4969C2.9047 2.43976 3.3509 2.32611 3.79931 2.22011C3.94403 2.18608 4.08899 2.15545 4.23493 2.12723C4.41977 2.08965 4.60304 2.04471 4.78661 2.0014C4.87522 1.9806 4.96385 1.95983 5.05247 1.93908C5.08524 1.9314 5.08524 1.9314 5.11867 1.92357C5.38888 1.86029 5.6595 1.79889 5.93021 1.7378C6.03951 1.71311 6.14878 1.68834 6.25806 1.66357C6.70034 1.5634 7.14278 1.46403 7.58547 1.3657C7.61035 1.36018 7.63523 1.35465 7.66086 1.34895C8.08266 1.25525 8.50456 1.16204 8.9265 1.06899C8.98617 1.05583 9.04585 1.04267 9.10553 1.02951C9.5944 0.921684 9.5944 0.921684 9.83102 0.869576C11.1948 0.572328 11.1948 0.572328 12.5529 0.250696C13.9545 -0.0963264 13.9545 -0.0963264 14.6143 0.333965Z" fill="black"/>
<path d="M15.4607 9.62021C15.5817 9.62109 15.7028 9.6209 15.8238 9.62086C16.0265 9.62096 16.2292 9.6218 16.4319 9.62316C16.6656 9.62472 16.8993 9.62523 17.1329 9.62516C17.3833 9.62509 17.6337 9.62578 17.884 9.62668C17.9557 9.62689 18.0273 9.62697 18.0989 9.627C18.2324 9.62712 18.3658 9.62808 18.4993 9.62914C18.5386 9.62909 18.5779 9.62905 18.6184 9.629C18.9942 9.63333 19.3033 9.75283 19.5885 10.0031C19.9797 10.4099 20.0057 10.8233 19.9994 11.3567C19.9992 11.4232 19.9992 11.4897 19.9992 11.5563C19.9991 11.695 19.9983 11.8336 19.9969 11.9723C19.9953 12.1495 19.9949 12.3266 19.995 12.5038C19.9949 12.6409 19.9944 12.778 19.9937 12.9151C19.9934 12.9804 19.9932 13.0457 19.9931 13.111C19.9929 13.2024 19.992 13.2937 19.991 13.3851C19.991 13.4249 19.991 13.4249 19.9911 13.4656C19.9852 13.821 19.8308 14.1905 19.5819 14.4463C19.2394 14.7193 18.8876 14.8334 18.4533 14.8279C18.4114 14.8281 18.3696 14.8282 18.3265 14.8283C18.2131 14.8286 18.0997 14.828 17.9863 14.8271C17.867 14.8263 17.7478 14.8264 17.6286 14.8264C17.4288 14.8262 17.229 14.8254 17.0291 14.8242C16.7984 14.8229 16.5676 14.8223 16.3368 14.8222C16.0903 14.8221 15.8439 14.8214 15.5974 14.8206C15.5266 14.8204 15.4559 14.8203 15.3851 14.8202C15.2533 14.82 15.1215 14.8192 14.9897 14.8183C14.9506 14.8183 14.9115 14.8182 14.8712 14.8182C14.8174 14.8177 14.8174 14.8177 14.7624 14.8172C14.7313 14.8171 14.7002 14.8169 14.6681 14.8168C14.574 14.8074 14.5034 14.7803 14.4172 14.7424C14.3687 14.7338 14.32 14.7263 14.2712 14.7198C13.8956 14.6476 13.5818 14.43 13.2987 14.1832C13.2782 14.1674 13.2578 14.1516 13.2367 14.1354C12.85 13.833 12.5042 13.2331 12.4198 12.7471C12.3256 11.962 12.443 11.2582 12.929 10.6211C13.6153 9.78755 14.418 9.611 15.4607 9.62021Z" fill="black"/>
<path d="M15.5142 11.1373C15.8064 11.3436 16.0251 11.6241 16.0947 11.9799C16.1238 12.3938 16.0497 12.7306 15.7986 13.0654C15.565 13.3205 15.2928 13.4759 14.9464 13.5032C14.5338 13.5189 14.2424 13.443 13.9235 13.1641C13.5904 12.7521 13.5213 12.3977 13.5617 11.8812C13.5864 11.7644 13.6252 11.6825 13.6933 11.5851C13.7203 11.5443 13.7203 11.5443 13.7479 11.5027C14.1832 10.903 14.8819 10.765 15.5142 11.1373Z" fill="white"/>
</svg>
