<svg width="24" height="24" viewBox="0 0 24 24" fill="none" xmlns="http://www.w3.org/2000/svg">
<path d="M21 16.42V19.47C21 20.33 20.36 21.06 19.51 21.17C19.07 21.23 18.61 21.26 18.15 21.26C9.62999 21.26 2.73999 14.37 2.73999 5.85C2.73999 5.39 2.76999 4.93 2.82999 4.49C2.88556 4.07818 3.08833 3.70041 3.40084 3.42651C3.71334 3.1526 4.11444 3.0011 4.52999 3H7.57999C8.40999 3 9.11999 3.59 9.26999 4.4L9.74999 7C9.86999 7.64 9.61999 8.29 9.10999 8.69L7.76999 9.73C9.01076 12.6583 11.3417 14.9892 14.27 16.23L15.31 14.89C15.71 14.38 16.36 14.13 17 14.25L19.6 14.73C20.41 14.88 21 15.59 21 16.42Z" stroke="white" stroke-linecap="round" stroke-linejoin="round"/>
</svg>
