<svg width="22" height="22" viewBox="0 0 22 22" fill="none" xmlns="http://www.w3.org/2000/svg">
<path d="M16.6001 13.6843V15.5217C16.6001 16.0398 16.2146 16.4795 15.7025 16.5458C15.4374 16.5819 15.1603 16.6 14.8832 16.6C9.7507 16.6 5.6001 12.4494 5.6001 7.31687C5.6001 7.03976 5.61817 6.76265 5.65431 6.49759C5.68779 6.24951 5.80994 6.02193 5.9982 5.85693C6.18645 5.69193 6.42808 5.60066 6.67841 5.6H8.51576C9.01576 5.6 9.44347 5.95542 9.53383 6.44337L9.82299 8.00964C9.89528 8.39518 9.74468 8.78675 9.43745 9.02771L8.63022 9.65422C9.37767 11.4182 10.7819 12.8224 12.5459 13.5699L13.1724 12.7627C13.4134 12.4554 13.8049 12.3048 14.1905 12.3771L15.7567 12.6663C16.2447 12.7566 16.6001 13.1843 16.6001 13.6843Z" fill="white"/>
<path d="M10.7539 20.9077C16.3618 20.9077 20.9078 16.3617 20.9078 10.7538C20.9078 5.14603 16.3618 0.6 10.7539 0.6C5.14613 0.6 0.600098 5.14603 0.600098 10.7538C0.600098 12.7021 1.1488 14.5222 2.1001 16.068L0.600098 20.9077L5.91845 19.6846C7.35613 20.4647 9.0033 20.9077 10.7539 20.9077Z" stroke="white" stroke-width="1.2" stroke-linecap="round" stroke-linejoin="round"/>
</svg>
