<svg width="23" height="23" viewBox="0 0 23 23" fill="none" xmlns="http://www.w3.org/2000/svg">
<path d="M7.19896 3.93432C6.46898 4.02969 5.82886 4.33416 5.2933 4.84222C4.82926 5.28241 4.50829 5.83815 4.36339 6.45625C4.27536 6.82858 4.24968 7.34397 4.2992 7.7218C4.46244 8.9415 5.29513 9.96127 6.47081 10.3813C6.82113 10.506 7.0669 10.5482 7.50159 10.5592C8.03349 10.5739 8.36547 10.5207 8.81666 10.3519C9.65853 10.0383 10.3775 9.33033 10.7132 8.48663C10.9919 7.78783 11.0158 6.89277 10.7755 6.17379C10.5022 5.35761 9.9098 4.67531 9.11929 4.26813C8.57089 3.98384 7.82073 3.85362 7.19896 3.93432ZM7.98213 6.0399C8.73413 6.27834 9.09178 7.11654 8.74513 7.82635C8.6039 8.11797 8.31961 8.36191 8.00414 8.46646C7.85741 8.51414 7.81523 8.51965 7.60247 8.51965C7.34936 8.51965 7.2228 8.49214 7.02655 8.39126C6.80462 8.27938 6.57536 8.05194 6.46898 7.84102C6.36993 7.64293 6.33692 7.49253 6.33692 7.24493C6.33875 7.03584 6.34425 7.00099 6.39561 6.85426C6.46898 6.64333 6.54968 6.51311 6.69457 6.36638C6.87799 6.1793 7.09625 6.06008 7.35486 6.00505C7.52727 5.96837 7.80606 5.98488 7.98213 6.0399Z" fill="black"/>
<path d="M15.7075 5.13C15.304 5.65273 14.607 6.55512 14.1595 7.13471C13.712 7.71429 13.0939 8.51581 12.7857 8.91381C12.4776 9.31182 12.0411 9.87673 11.8155 10.1702C11.5899 10.4618 11.2909 10.8507 11.1497 11.0322C11.0103 11.2138 10.6031 11.742 10.2436 12.2061C9.88597 12.6701 9.55766 13.0956 9.51364 13.1507C9.46962 13.2057 9.28988 13.4368 9.11563 13.6642C8.93956 13.8916 8.68461 14.2218 8.54705 14.3979C8.40949 14.5739 8.18756 14.8637 8.05184 15.0398C7.91611 15.2159 7.64833 15.5644 7.45574 15.8138C7.265 16.0614 7.0449 16.3457 6.9697 16.4448C6.8945 16.5438 6.53318 17.0115 6.16819 17.4847C5.80136 17.9579 5.5024 18.3523 5.5024 18.3614C5.5024 18.3706 5.91691 18.3779 6.5075 18.3779L7.51077 18.3761L7.79689 18.0056C8.27193 17.393 9.35957 15.9899 9.6567 15.6084C9.80893 15.4121 10.0896 15.049 10.2803 14.8014C10.4711 14.5538 10.8085 14.1172 11.0323 13.8293C11.2561 13.5413 11.7916 12.8499 12.2263 12.2904C12.6592 11.7329 13.0664 11.2065 13.1324 11.1239C13.1984 11.0396 13.3745 10.8121 13.5249 10.6159C13.899 10.1317 14.6602 9.15225 15.5718 7.97841C16.3219 7.01365 16.4467 6.85042 17.3234 5.71326C17.8809 4.98877 18.4495 4.25512 18.4844 4.21294C18.5101 4.18359 18.4605 4.18176 17.4774 4.18176H16.4412L15.7075 5.13Z" fill="black"/>
<path d="M15.5259 12.1438C15.3425 12.1677 14.972 12.263 14.7776 12.3364C14.5447 12.4263 14.2549 12.5803 14.0494 12.7252C13.8092 12.894 13.4295 13.2755 13.2534 13.5249C13.0058 13.8771 12.8022 14.3484 12.7087 14.7831C12.661 15.0106 12.6408 15.5571 12.672 15.8286C12.8151 17.0575 13.6918 18.1268 14.884 18.5229C15.282 18.655 15.4489 18.6807 15.9203 18.6807C16.2981 18.6807 16.3531 18.6752 16.5622 18.6311C17.3509 18.4606 18.0093 18.0406 18.4935 17.3949C19.0786 16.6154 19.2877 15.5626 19.0474 14.6089C18.9007 14.0238 18.6494 13.5653 18.2404 13.1361C17.725 12.595 17.0684 12.2557 16.3366 12.1512C16.133 12.1218 15.7313 12.1181 15.5259 12.1438ZM16.2119 14.2054C16.6502 14.3099 17.0079 14.6694 17.1234 15.1225C17.1638 15.2894 17.1656 15.5755 17.1234 15.7369C17.0042 16.1899 16.6374 16.5457 16.1807 16.6466C15.9844 16.6906 15.7038 16.6741 15.5094 16.6081C15.2178 16.5072 14.9537 16.2761 14.8179 16.0028C14.7281 15.8213 14.6951 15.6984 14.6804 15.4984C14.6364 14.9189 15.0234 14.376 15.5938 14.2127C15.7405 14.1705 16.0486 14.1669 16.2119 14.2054Z" fill="black"/>
</svg>
