<svg width="1266" height="179" viewBox="0 0 1266 179" fill="none" xmlns="http://www.w3.org/2000/svg">
<path d="M11.3862 163.5C20.0529 155.167 39.0136 146.5 50.8862 146.5C66.8862 146.5 73.8862 135.5 83.8862 129.5C93.8862 123.5 82.6852 127.5 90.8862 127.5C96.0529 133.5 121.586 143.9 126.386 129.5C131.186 115.1 132.386 97 143.386 97C154.386 97 167.102 101.946 180.886 97C190.063 93.707 192.273 85.1232 201.886 83.5C219.032 80.6049 223.331 100.3 238.386 109C248.971 115.117 254.526 120.035 266.386 123C279.646 126.315 277.218 121 290.886 121C302.407 121 306.269 127.523 317.386 124.5C328.02 121.609 336.719 113.766 347.386 111C357.593 108.353 362.886 110.5 365.886 105.5C368.886 100.5 378.081 92.4433 386.886 94C393.832 95.228 393.817 106.43 400.386 109C407.296 111.703 408.656 108.623 415.386 105.5C425.446 100.831 430.449 114.826 439.886 109C449.191 103.256 439.425 89.0328 446.386 84.5C458.032 76.9174 480.789 75.141 490.886 86.5C502.886 100 504.386 100 527.386 100C532.854 100 559.827 119.136 560.886 124.5C562.273 131.525 563.886 138.5 571.886 142.5C583.157 148.136 597.829 147.06 610.386 146C625.528 144.722 620.886 123 644.386 114.5C658.188 109.508 684.643 112.783 697.386 105.5C718.403 93.4879 708.386 83.5 745.386 75.5C766.834 70.8627 781.386 71 790.386 79.5C795.753 84.5682 803.379 82.5162 809.886 86C821.973 92.4709 808.233 93.1336 821.386 97C829.149 99.2818 834.813 96.4622 842.886 97C856.24 97.8897 861.261 86.1196 874.386 83.5C886.833 81.0158 894.267 82.1425 906.886 83.5C918.995 84.8026 925.25 91.0171 937.386 90C946.127 89.2674 949.227 80.9006 957.886 79.5C968.295 77.8164 975.42 84.7811 985.886 83.5C1009.68 80.5873 1026.5 56.4762 1050.39 54.5C1072.91 52.6371 1077.02 62.2765 1098.89 68C1114.43 72.0691 1120.83 79.9596 1136.89 79.5C1158.36 78.8855 1176.76 71.0373 1194.89 59.5C1211.07 49.1988 1218.93 30.966 1235.89 22C1246.27 16.5085 1244.04 15.0462 1255.39 12" stroke="black" stroke-width="4" stroke-linecap="round" stroke-linejoin="round"/>
<circle cx="12.3862" cy="162" r="10" fill="#090909"/>
<circle cx="1251.39" cy="10" r="10" fill="#090909"/>
<circle cx="87.3862" cy="131" r="10" fill="#090909"/>
<circle cx="87.3862" cy="131" r="5" fill="#F8FAFC"/>
<circle cx="262.386" cy="120" r="10" fill="#090909"/>
<circle cx="262.386" cy="120" r="5" fill="#F8FAFC"/>
<circle cx="431.386" cy="106" r="10" fill="#090909"/>
<circle cx="431.386" cy="106" r="5" fill="#F8FAFC"/>
<circle cx="625.386" cy="132" r="10" fill="#090909"/>
<circle cx="625.386" cy="132" r="5" fill="#F8FAFC"/>
<circle cx="769.386" cy="73" r="10" fill="#090909"/>
<circle cx="769.386" cy="73" r="5" fill="#F8FAFC"/>
<circle cx="988.386" cy="82" r="10" fill="#090909"/>
<circle cx="988.386" cy="82" r="5" fill="#F8FAFC"/>
<circle cx="1136.39" cy="80" r="10" fill="#090909"/>
<circle cx="1136.39" cy="80" r="5" fill="#F8FAFC"/>
<defs>
<filter id="filter0_d_2105_1145" x="0" y="4.06836" width="1265.9" height="174.873" filterUnits="userSpaceOnUse" color-interpolation-filters="sRGB">
<feFlood flood-opacity="0" result="BackgroundImageFix"/>
<feColorMatrix in="SourceAlpha" type="matrix" values="0 0 0 0 0 0 0 0 0 0 0 0 0 0 0 0 0 0 127 0" result="hardAlpha"/>
<feOffset dy="4"/>
<feGaussianBlur stdDeviation="5"/>
<feComposite in2="hardAlpha" operator="out"/>
<feColorMatrix type="matrix" values="0 0 0 0 0 0 0 0 0 0 0 0 0 0 0 0 0 0 0.3 0"/>
<feBlend mode="normal" in2="BackgroundImageFix" result="effect1_dropShadow_2105_1145"/>
<feBlend mode="normal" in="SourceGraphic" in2="effect1_dropShadow_2105_1145" result="shape"/>
</filter>
</defs>
</svg>
