<svg width="32" height="32" viewBox="0 0 32 32" fill="none" xmlns="http://www.w3.org/2000/svg">
<path d="M5.06535 8.23975C5.0041 8.27802 4.8561 8.54597 4.28959 9.64836C3.90426 10.3986 3.38114 11.4117 3.12595 11.9042C2.87077 12.3941 2.5671 12.9811 2.44972 13.2056C2.33488 13.4302 2.0848 13.9099 1.89597 14.2723C1.43919 15.145 1.43664 15.1195 2.00314 15.413C2.17157 15.4997 2.43696 15.6375 2.59007 15.7192C2.74573 15.8008 3.21271 16.0407 3.63377 16.2551C4.32276 16.6047 4.40442 16.6404 4.48863 16.6251C4.67747 16.5919 4.66726 16.6047 5.15466 15.6554C5.31287 15.3466 5.60123 14.7903 5.79262 14.4177C6.30299 13.4353 6.50968 13.0321 6.76997 12.5294C6.89501 12.2844 7.09405 11.9042 7.20889 11.6873C8.19134 9.83209 8.21431 9.7785 8.07141 9.62284C8.02547 9.5718 7.53552 9.30896 6.6679 8.8675C5.24397 8.14533 5.22611 8.13767 5.06535 8.23975Z" fill="black"/>
<path d="M25.4647 9.09474C24.5486 9.55407 24.1046 9.79139 24.0663 9.83987C23.9694 9.96236 23.9923 10.0925 24.1633 10.4191C24.245 10.5748 24.6099 11.2791 24.9748 11.9809C25.5847 13.1547 25.9751 13.9075 27.0035 15.9107C27.2281 16.3496 27.4144 16.6788 27.4603 16.7196C27.6006 16.8523 27.6006 16.8523 29.0909 16.1046C30.5633 15.3646 30.5455 15.3748 30.5455 15.1732C30.5455 15.066 30.599 15.1707 29.1675 12.4019C28.7515 11.5955 28.1314 10.3911 27.7895 9.72759C27.3786 8.92376 27.149 8.50526 27.1081 8.47974C27.075 8.45678 26.9933 8.43381 26.927 8.42871C26.8147 8.42105 26.7305 8.45933 25.4647 9.09474Z" fill="black"/>
<path d="M17.0079 9.25539C16.3955 9.34215 15.4641 9.78362 14.3923 10.4956C13.7339 10.9345 13.4941 11.1591 12.9071 11.8812C12.7693 12.0471 12.4733 12.361 12.2488 12.5779C11.695 13.1061 11.6057 13.2694 11.7001 13.5961C11.7563 13.7874 11.9681 14.0018 12.1773 14.0809C12.3713 14.1549 12.6341 14.1855 12.8561 14.16C13.3103 14.1115 13.6804 13.9099 14.4561 13.2949C14.8976 12.9453 15.1068 12.8177 15.5151 12.6595C15.9464 12.4911 16.2807 12.4146 16.518 12.435C16.9697 12.4707 17.0947 12.56 18.6284 13.9355C20.0344 15.1935 22.4893 17.4723 23.3748 18.3399L23.7193 18.6768L24.0434 18.4292C24.2194 18.294 24.5741 18.0158 24.8293 17.8117C25.919 16.9441 26.1256 16.7935 26.4804 16.6149C26.5901 16.5613 26.6666 16.4541 26.6666 16.3597C26.6666 16.3316 26.613 16.2066 26.5493 16.0841C26.2022 15.4283 25.3499 13.7798 24.199 11.5469C23.9515 11.0697 23.7346 10.6589 23.7116 10.6359C23.6325 10.5415 23.5304 10.5339 23.2625 10.6028C22.895 10.6972 22.502 10.7278 22.1524 10.6946C21.6089 10.6385 21.1878 10.5032 19.5725 9.86783C18.4829 9.44167 18.1716 9.33449 17.8398 9.2758C17.6434 9.24008 17.1917 9.22987 17.0079 9.25539Z" fill="black"/>
<path d="M13.1802 9.82449C12.7336 9.85511 12.4963 9.90615 11.1999 10.2481C10.2149 10.5084 10.0644 10.539 9.77345 10.5543C9.48254 10.5696 9.15846 10.5186 8.88031 10.414C8.80376 10.3833 8.70679 10.3604 8.66341 10.3604C8.50264 10.3604 8.45671 10.4216 8.15559 10.9983C7.99738 11.2994 7.64522 11.9782 7.36963 12.5039C6.84905 13.5017 6.33358 14.4969 5.90742 15.3237C5.76963 15.5891 5.61907 15.88 5.57058 15.9693C5.37919 16.3189 5.39706 16.4057 5.69562 16.5741C5.95591 16.7195 6.33868 17.0079 6.96644 17.531C7.59674 18.0567 7.80089 18.22 7.8264 18.22C7.83661 18.22 7.94379 18.0899 8.06372 17.9342C8.3036 17.6229 8.42353 17.5055 8.60471 17.4136C8.86755 17.2809 9.23502 17.2376 9.50806 17.3116C9.92146 17.4213 10.2889 17.7683 10.4216 18.1766C10.4344 18.2149 10.4497 18.2098 10.5569 18.1333C10.9345 17.8653 11.3428 17.799 11.7486 17.9393C12.1594 18.0797 12.4912 18.4497 12.5805 18.8707C12.6009 18.955 12.6162 19.0264 12.6187 19.029C12.6187 19.0315 12.6928 19.006 12.7795 18.9703C13.3664 18.7329 14.0784 19.0187 14.3668 19.6057C14.479 19.8353 14.5326 20.0905 14.5046 20.264C14.4892 20.3534 14.4918 20.3687 14.525 20.3585C14.6321 20.3151 14.8516 20.3125 15.02 20.3457C15.4819 20.4427 15.8519 20.7668 15.9999 21.2082C16.0969 21.4915 16.0688 21.8921 15.9361 22.1473C15.9132 22.1932 15.7601 22.4025 15.5942 22.6168C15.4309 22.8312 15.288 23.0175 15.2778 23.0353C15.2676 23.0532 15.3237 23.1144 15.4181 23.1884C16.153 23.7652 16.1632 23.7703 16.472 23.7703C16.7476 23.7703 16.8829 23.7141 17.0589 23.5253C17.2529 23.3186 17.3039 22.9894 17.1789 22.747C17.1483 22.6908 16.9977 22.5326 16.8267 22.3795C16.2526 21.8691 16.2806 21.8998 16.2806 21.7875C16.2806 21.6701 16.3699 21.5629 16.4695 21.5629C16.5613 21.5629 16.7782 21.7492 17.7275 22.65C18.1588 23.0557 18.2532 23.1042 18.6028 23.0889C19.0647 23.066 19.4066 22.7827 19.4959 22.3438C19.5317 22.1652 19.5138 22.0044 19.4347 21.8309C19.3632 21.6727 19.2561 21.5476 19.0341 21.3613C18.9396 21.2822 18.613 20.999 18.3068 20.7336C17.998 20.4656 17.5999 20.1211 17.4162 19.9706C17.235 19.8175 17.0691 19.6746 17.0538 19.6542C17.036 19.6312 17.0207 19.5725 17.0207 19.5215C17.0207 19.3939 17.0972 19.3173 17.2223 19.3173C17.309 19.3173 17.3626 19.3556 17.827 19.7537C18.5467 20.3738 19.3173 21.0653 19.8404 21.5629C20.0701 21.7824 20.213 21.8615 20.4503 21.9023C20.7744 21.9559 21.147 21.8028 21.3511 21.5272C21.5629 21.2414 21.5987 20.8816 21.443 20.5652C21.369 20.4146 21.3128 20.3559 20.8688 19.9629C20.4376 19.5827 19.6771 18.9218 18.909 18.2609C18.5186 17.9266 18.4752 17.8781 18.4752 17.7939C18.4752 17.6433 18.6309 17.5285 18.761 17.5795C18.8529 17.6178 20.2589 18.8325 21.3333 19.8022C21.6063 20.0497 21.8768 20.2819 21.9329 20.3176C22.2085 20.4963 22.576 20.5141 22.8746 20.3661C23.2956 20.1594 23.5304 19.7001 23.4385 19.2612C23.3645 18.909 23.4972 19.0443 20.8484 16.5741C20.532 16.2781 20.1186 15.8953 19.9298 15.7192C19.5725 15.39 17.9827 13.9738 17.4953 13.5502C16.6838 12.8433 16.7119 12.8612 16.4465 12.8612C16.1811 12.8612 15.5865 13.0679 15.2089 13.2924C15.117 13.3486 14.8644 13.5323 14.6475 13.7033C14.0554 14.1728 13.7773 14.3463 13.392 14.4943C13.221 14.5607 12.8739 14.6219 12.6851 14.6219C12.2921 14.6194 11.843 14.4586 11.6057 14.2366C11.3377 13.9891 11.1923 13.5935 11.251 13.272C11.3122 12.9428 11.3913 12.8305 11.9553 12.264C12.2385 11.9833 12.6187 11.5725 12.8025 11.3556C13.3128 10.7508 13.6931 10.4165 14.3387 10.0031C14.4714 9.9189 14.4739 9.91635 14.4101 9.89849C14.3336 9.87808 13.8947 9.83214 13.6395 9.81683C13.5425 9.81173 13.3358 9.81428 13.1802 9.82449Z" fill="black"/>
<path d="M9.01809 17.7097C8.86243 17.7403 8.67615 17.845 8.57152 17.9572C8.43883 18.0976 7.96674 18.7253 7.90294 18.8453C7.85701 18.9295 7.8468 18.9907 7.8468 19.1898C7.8468 19.4016 7.85446 19.4475 7.9157 19.5598C8.06626 19.8456 8.31379 20.0064 8.62766 20.0268C8.99768 20.0497 9.1712 19.9477 9.5106 19.5087C9.89592 19.0111 9.98014 18.8784 10.0184 18.7151C10.1537 18.1384 9.60757 17.5898 9.01809 17.7097Z" fill="black"/>
<path d="M11.1821 18.3017C11.0443 18.3221 10.9396 18.3655 10.8146 18.4548C10.7763 18.4803 10.5543 18.7585 10.3195 19.0698C10.0848 19.3811 9.80918 19.746 9.7071 19.8813C9.48254 20.1747 9.43661 20.287 9.43406 20.5473C9.43151 20.7157 9.44171 20.7616 9.51572 20.9097C9.61524 21.1113 9.77345 21.2593 9.97505 21.3358C10.2404 21.4353 10.6283 21.369 10.835 21.1878C10.9345 21.0985 12.0318 19.6465 12.1084 19.501C12.1773 19.3735 12.1849 19.3301 12.1849 19.1387C12.1849 18.9524 12.1747 18.9014 12.1135 18.7763C11.9476 18.4344 11.5674 18.243 11.1821 18.3017Z" fill="black"/>
<path d="M12.9148 19.3658C12.7158 19.4398 12.6418 19.5087 12.3866 19.8455C12.259 20.0114 11.963 20.3993 11.7307 20.7055C11.3888 21.1521 11.2944 21.2924 11.2638 21.4047C11.2102 21.5859 11.228 21.8385 11.3046 22.0171C11.3786 22.1907 11.5878 22.3821 11.7767 22.4535C12.0344 22.5505 12.3611 22.5097 12.5729 22.3565C12.7055 22.2621 13.8641 20.7565 13.984 20.5243C14.0631 20.3738 14.0733 20.3304 14.0733 20.162C14.0708 19.8302 13.9177 19.575 13.6217 19.4194C13.4124 19.3071 13.1317 19.2867 12.9148 19.3658Z" fill="black"/>
<path d="M14.5812 20.7745C14.377 20.823 14.2137 20.9481 14.0146 21.2058C13.4226 21.979 13.221 22.2546 13.1904 22.3439C13.1725 22.4 13.1572 22.5251 13.1572 22.6246C13.1598 23.2166 13.7595 23.6173 14.3209 23.4029C14.4893 23.3391 14.6067 23.2243 14.9078 22.8313C15.0813 22.6067 15.288 22.3363 15.3722 22.2316C15.5866 21.956 15.63 21.8514 15.63 21.5886C15.63 21.4023 15.6197 21.3512 15.5585 21.2262C15.3901 20.8843 14.9588 20.6827 14.5812 20.7745Z" fill="black"/>
</svg>
