<svg width="20" height="18" viewBox="0 0 20 18" fill="none" xmlns="http://www.w3.org/2000/svg">
<path d="M18.6826 0.0303283C18.6323 0.0577727 14.5065 1.73188 9.51615 3.75819C2.01468 6.79995 0.418336 7.46318 0.290262 7.58668C-0.0344968 7.89772 -0.0939597 8.44203 0.148466 8.81253C0.381743 9.16016 0.464076 9.18761 2.86089 9.66788C4.06844 9.91031 5.06101 10.1161 5.07016 10.1253C5.07931 10.1344 5.49097 11.557 5.98497 13.2905C6.48355 15.0241 6.92723 16.5107 6.97755 16.5976C7.27943 17.1145 8.07532 17.2014 8.49156 16.7623C8.56932 16.6845 9.04502 15.8657 9.55732 14.9464C10.065 14.027 10.495 13.2631 10.5087 13.2448C10.527 13.2265 11.5608 14.0498 12.8049 15.0699C14.0491 16.0899 15.1331 16.9498 15.2154 16.9864C15.4304 17.0824 15.8375 17.0687 16.0479 16.9589C16.24 16.8629 16.4459 16.6388 16.519 16.4604C16.6197 16.1951 19.9999 1.13725 19.9999 0.945141C20.0045 0.656974 19.8352 0.341364 19.5837 0.158402C19.4144 0.0349017 19.3412 0.012031 19.0805 0.00288283C18.9113 -0.0062653 18.7329 0.00745798 18.6826 0.0303283ZM14.232 5.28135C14.1314 5.40485 13.0107 6.7725 11.7437 8.32311L9.43382 11.1499L8.77515 12.3346C8.4138 12.9887 8.10277 13.5101 8.08904 13.4918C8.07532 13.4735 7.8329 12.6456 7.5493 11.653C7.27029 10.6605 7.02786 9.81425 7.01414 9.77309C7.00042 9.71363 7.26571 9.52609 8.12564 8.98178C8.74771 8.58841 10.4035 7.55009 11.7986 6.6673C13.1937 5.78908 14.3555 5.06637 14.3738 5.06637C14.3967 5.06637 14.3326 5.16243 14.232 5.28135Z" fill="#242424"/>
</svg>
