<svg width="23" height="23" viewBox="0 0 23 23" fill="none" xmlns="http://www.w3.org/2000/svg">
<path d="M17 14.0843V15.9217C17 16.4398 16.6145 16.8795 16.1024 16.9458C15.8373 16.9819 15.5602 17 15.2831 17C10.1506 17 6 12.8494 6 7.71687C6 7.43976 6.01807 7.16265 6.05422 6.89759C6.08769 6.64951 6.20985 6.42193 6.3981 6.25693C6.58636 6.09193 6.82798 6.00066 7.07831 6H8.91566C9.41566 6 9.84337 6.35542 9.93374 6.84337L10.2229 8.40964C10.2952 8.79518 10.1446 9.18675 9.83735 9.42771L9.03012 10.0542C9.77757 11.8182 11.1818 13.2224 12.9458 13.9699L13.5723 13.1627C13.8133 12.8554 14.2048 12.7048 14.5904 12.7771L16.1566 13.0663C16.6446 13.1566 17 13.5843 17 14.0843Z" fill="black"/>
<path d="M11.1538 21.3077C16.7617 21.3077 21.3077 16.7617 21.3077 11.1538C21.3077 5.54603 16.7617 1 11.1538 1C5.54603 1 1 5.54603 1 11.1538C1 13.1021 1.5487 14.9222 2.5 16.468L1 21.3077L6.31835 20.0846C7.75603 20.8647 9.4032 21.3077 11.1538 21.3077Z" stroke="black" stroke-width="2" stroke-linecap="round" stroke-linejoin="round"/>
</svg>
