<svg width="21" height="21" viewBox="0 0 21 21" fill="none" xmlns="http://www.w3.org/2000/svg">
<path d="M19.26 14.42V17.47C19.26 18.33 18.62 19.06 17.77 19.17C17.33 19.23 16.87 19.26 16.41 19.26C7.89 19.26 1 12.37 1 3.85C1 3.39 1.03 2.93 1.09 2.49C1.14557 2.07818 1.34834 1.70041 1.66085 1.42651C1.97335 1.1526 2.37445 1.0011 2.79 1H5.84C6.67 1 7.38 1.59 7.53 2.4L8.01 5C8.13 5.64 7.88 6.29 7.37 6.69L6.03 7.73C7.27077 10.6583 9.60173 12.9892 12.53 14.23L13.57 12.89C13.97 12.38 14.62 12.13 15.26 12.25L17.86 12.73C18.67 12.88 19.26 13.59 19.26 14.42Z" stroke="black" stroke-width="2" stroke-linecap="round" stroke-linejoin="round"/>
</svg>
